# xmcd
#
# Track frame offsets:
#        150
#        24200
#        46942
#
# Disc length: 978 seconds
#
# Revision: 0
# Processed by: cddbd v1.5PL3 Copyright (c) Steve Scherf et al.
# Submitted via: ExactAudioCopy v0.95a5
#
DISCID=1603d003
DTITLE=Zi:Kill - Hero
DYEAR=1995
DGENRE=Eock
TTITLE0=HERO(BRAND NEW MIX)
TTITLE1=HERO(REMIX VERSION)
TTITLE2=LONELY(LIVE VERSION)
EXTD=
EXTT0=
EXTT1=
EXTT2=
PLAYORDER=
